# xmcd CD database file
# Copyright (C) 1993-1996 Ti Kan
#
# Track frame offsets:
#  150
#  10354
#  23266
#  36989
#  48847
#  68586
#  85520
#  99398
#  119890
#  132567
#  144765
#  158317
#  170952
#  183423
#  197208
#  212437
#  233775
#  246663
#  258954
#  272020
#  284330
#  303045
#  315998
#  327338
#  342814
#
# Disc length: 4718 seconds
#
# Revision: 1
# Processed by: cddbd v1.5.1PL2 Copyright (c) Steve Scherf et al.
# Submitted via: Advanced CD Ripper Pro 2.0
#
DISCID=57126c19
DTITLE=conwat Twitty 1 - Conway
DYEAR=2006
DGENRE=
TTITLE0=Track01
TTITLE1=Track02
TTITLE2=Track03
TTITLE3=Track04
TTITLE4=Track05
TTITLE5=Track06
TTITLE6=Track07
TTITLE7=Track08
TTITLE8=Track09
TTITLE9=Track10
TTITLE10=Track11
TTITLE11=Track12
TTITLE12=Track13
TTITLE13=Track14
TTITLE14=Track15
TTITLE15=Track16
TTITLE16=Track17
TTITLE17=Track18
TTITLE18=Track19
TTITLE19=Track20
TTITLE20=Track21
TTITLE21=Track22
TTITLE22=Track23
TTITLE23=Track24
TTITLE24=Track25
EXTD=
EXTT0=
EXTT1=
EXTT2=
EXTT3=
EXTT4=
EXTT5=
EXTT6=
EXTT7=
EXTT8=
EXTT9=
EXTT10=
EXTT11=
EXTT12=
EXTT13=
EXTT14=
EXTT15=
EXTT16=
EXTT17=
EXTT18=
EXTT19=
EXTT20=
EXTT21=
EXTT22=
EXTT23=
EXTT24=
PLAYORDER=
